<mxfile host="app.diagrams.net" modified="2021-04-05T08:41:41.444Z" agent="5.0 (Windows NT 6.1; Win64; x64) AppleWebKit/537.36 (KHTML, like Gecko) Chrome/89.0.4389.114 Safari/537.36" etag="A_YOePfDE3yqQJtlvaeE" version="14.5.7" type="github">
  <diagram id="GbEMFJh3VhOR_tVis_yq" name="Page-1">
    <mxGraphModel dx="1019" dy="555" grid="1" gridSize="10" guides="1" tooltips="1" connect="1" arrows="1" fold="1" page="1" pageScale="1" pageWidth="827" pageHeight="1169" math="0" shadow="0">
      <root>
        <mxCell id="0" />
        <mxCell id="1" parent="0" />
        <mxCell id="60yTkBvZ1NVSUxTdVP18-1" value="" style="ellipse;whiteSpace=wrap;html=1;aspect=fixed;" vertex="1" parent="1">
          <mxGeometry x="150" y="180" width="140" height="140" as="geometry" />
        </mxCell>
        <mxCell id="60yTkBvZ1NVSUxTdVP18-2" value="" style="ellipse;whiteSpace=wrap;html=1;aspect=fixed;" vertex="1" parent="1">
          <mxGeometry x="540" y="180" width="140" height="140" as="geometry" />
        </mxCell>
        <mxCell id="60yTkBvZ1NVSUxTdVP18-3" value="" style="shape=process;whiteSpace=wrap;html=1;backgroundOutline=1;fillColor=#FFFFFF;" vertex="1" parent="1">
          <mxGeometry x="354" y="60" width="120" height="60" as="geometry" />
        </mxCell>
        <mxCell id="60yTkBvZ1NVSUxTdVP18-4" value="" style="endArrow=classic;html=1;exitX=1.002;exitY=0.419;exitDx=0;exitDy=0;exitPerimeter=0;entryX=0.5;entryY=1;entryDx=0;entryDy=0;" edge="1" parent="1" source="60yTkBvZ1NVSUxTdVP18-1" target="60yTkBvZ1NVSUxTdVP18-3">
          <mxGeometry width="50" height="50" relative="1" as="geometry">
            <mxPoint x="390" y="270" as="sourcePoint" />
            <mxPoint x="440" y="220" as="targetPoint" />
          </mxGeometry>
        </mxCell>
        <mxCell id="60yTkBvZ1NVSUxTdVP18-5" value="" style="endArrow=classic;html=1;exitX=0.562;exitY=1.052;exitDx=0;exitDy=0;exitPerimeter=0;" edge="1" parent="1" source="60yTkBvZ1NVSUxTdVP18-3">
          <mxGeometry width="50" height="50" relative="1" as="geometry">
            <mxPoint x="390" y="270" as="sourcePoint" />
            <mxPoint x="530" y="240" as="targetPoint" />
          </mxGeometry>
        </mxCell>
        <mxCell id="60yTkBvZ1NVSUxTdVP18-6" value="" style="endArrow=classic;html=1;fontSize=14;entryX=0;entryY=0;entryDx=0;entryDy=0;" edge="1" parent="1">
          <mxGeometry width="50" height="50" relative="1" as="geometry">
            <mxPoint x="20" y="240" as="sourcePoint" />
            <mxPoint x="150" y="240" as="targetPoint" />
          </mxGeometry>
        </mxCell>
        <mxCell id="60yTkBvZ1NVSUxTdVP18-7" value="" style="endArrow=classic;html=1;fontSize=14;entryX=0;entryY=0;entryDx=0;entryDy=0;" edge="1" parent="1">
          <mxGeometry width="50" height="50" relative="1" as="geometry">
            <mxPoint x="680" y="240" as="sourcePoint" />
            <mxPoint x="810" y="240" as="targetPoint" />
          </mxGeometry>
        </mxCell>
        <mxCell id="60yTkBvZ1NVSUxTdVP18-8" value="Data Pertandingan" style="text;html=1;strokeColor=none;fillColor=none;align=center;verticalAlign=middle;whiteSpace=wrap;rounded=0;" vertex="1" parent="1">
          <mxGeometry x="30" y="220" width="110" height="20" as="geometry" />
        </mxCell>
        <mxCell id="60yTkBvZ1NVSUxTdVP18-9" value="Info Pertandingan" style="text;html=1;strokeColor=none;fillColor=none;align=center;verticalAlign=middle;whiteSpace=wrap;rounded=0;" vertex="1" parent="1">
          <mxGeometry x="700" y="210" width="100" height="20" as="geometry" />
        </mxCell>
        <mxCell id="60yTkBvZ1NVSUxTdVP18-10" value="4.1&lt;br&gt;Input, Edit, Delete,&lt;br&gt;Pertandingan&amp;nbsp;" style="text;html=1;strokeColor=none;fillColor=none;align=center;verticalAlign=middle;whiteSpace=wrap;rounded=0;fontSize=15;" vertex="1" parent="1">
          <mxGeometry x="150" y="200" width="140" height="90" as="geometry" />
        </mxCell>
        <mxCell id="60yTkBvZ1NVSUxTdVP18-11" value="4.2&lt;br&gt;Menampilkan Info Pertandingan" style="text;html=1;strokeColor=none;fillColor=none;align=center;verticalAlign=middle;whiteSpace=wrap;rounded=0;fontSize=15;" vertex="1" parent="1">
          <mxGeometry x="545" y="205" width="130" height="80" as="geometry" />
        </mxCell>
        <mxCell id="60yTkBvZ1NVSUxTdVP18-12" value="PERTANDINGAN" style="text;html=1;strokeColor=none;fillColor=none;align=center;verticalAlign=middle;whiteSpace=wrap;rounded=0;fontSize=11;" vertex="1" parent="1">
          <mxGeometry x="369" y="75" width="90" height="30" as="geometry" />
        </mxCell>
      </root>
    </mxGraphModel>
  </diagram>
</mxfile>
